<svg width="515" height="258" viewBox="0 0 515 258" fill="none" xmlns="http://www.w3.org/2000/svg">
<path d="M6.49077 19H4.64418L9.98509 4.45455H11.8033L17.1442 19H15.2976L10.951 6.75568H10.8374L6.49077 19ZM7.17259 13.3182H14.6158V14.8807H7.17259V13.3182ZM19.1825 23.0909V8.09091H20.8018V9.82386H21.0007C21.1238 9.63447 21.2943 9.39299 21.5121 9.09943C21.7346 8.80114 22.0518 8.53598 22.4638 8.30398C22.8804 8.06723 23.4439 7.94886 24.1541 7.94886C25.0727 7.94886 25.8823 8.1785 26.5831 8.63778C27.2839 9.09706 27.8307 9.74811 28.2237 10.5909C28.6167 11.4337 28.8132 12.428 28.8132 13.5739C28.8132 14.7292 28.6167 15.7306 28.2237 16.5781C27.8307 17.4209 27.2862 18.0743 26.5902 18.5384C25.8942 18.9976 25.0916 19.2273 24.1825 19.2273C23.4818 19.2273 22.9207 19.1113 22.4993 18.8793C22.0779 18.6425 21.7536 18.375 21.5263 18.0767C21.299 17.7737 21.1238 17.5227 21.0007 17.3239H20.8587V23.0909H19.1825ZM20.8303 13.5455C20.8303 14.3693 20.951 15.0961 21.1925 15.7259C21.4339 16.3509 21.7867 16.8409 22.2507 17.196C22.7147 17.5464 23.2829 17.7216 23.9553 17.7216C24.656 17.7216 25.2408 17.5369 25.7095 17.1676C26.183 16.7936 26.5381 16.2917 26.7749 15.6619C27.0163 15.0275 27.1371 14.322 27.1371 13.5455C27.1371 12.7784 27.0187 12.0871 26.782 11.4716C26.55 10.8513 26.1972 10.3613 25.7237 10.0014C25.255 9.63684 24.6655 9.45455 23.9553 9.45455C23.2734 9.45455 22.7005 9.62737 22.2365 9.97301C21.7725 10.3139 21.4221 10.7921 21.1854 11.4077C20.9486 12.0185 20.8303 12.7311 20.8303 13.5455ZM31.37 23.0909V8.09091H32.9893V9.82386H33.1882C33.3113 9.63447 33.4818 9.39299 33.6996 9.09943C33.9221 8.80114 34.2393 8.53598 34.6513 8.30398C35.0679 8.06723 35.6314 7.94886 36.3416 7.94886C37.2602 7.94886 38.0698 8.1785 38.7706 8.63778C39.4714 9.09706 40.0182 9.74811 40.4112 10.5909C40.8042 11.4337 41.0007 12.428 41.0007 13.5739C41.0007 14.7292 40.8042 15.7306 40.4112 16.5781C40.0182 17.4209 39.4737 18.0743 38.7777 18.5384C38.0817 18.9976 37.2791 19.2273 36.37 19.2273C35.6693 19.2273 35.1082 19.1113 34.6868 18.8793C34.2654 18.6425 33.9411 18.375 33.7138 18.0767C33.4865 17.7737 33.3113 17.5227 33.1882 17.3239H33.0462V23.0909H31.37ZM33.0178 13.5455C33.0178 14.3693 33.1385 15.0961 33.38 15.7259C33.6214 16.3509 33.9742 16.8409 34.4382 17.196C34.9022 17.5464 35.4704 17.7216 36.1428 17.7216C36.8435 17.7216 37.4283 17.5369 37.897 17.1676C38.3705 16.7936 38.7256 16.2917 38.9624 15.6619C39.2038 15.0275 39.3246 14.322 39.3246 13.5455C39.3246 12.7784 39.2062 12.0871 38.9695 11.4716C38.7375 10.8513 38.3847 10.3613 37.9112 10.0014C37.4425 9.63684 36.853 9.45455 36.1428 9.45455C35.4609 9.45455 34.888 9.62737 34.424 9.97301C33.96 10.3139 33.6096 10.7921 33.3729 11.4077C33.1361 12.0185 33.0178 12.7311 33.0178 13.5455ZM48.6143 6.01705V4.45455H59.5234V6.01705H54.9496V19H53.1882V6.01705H48.6143ZM60.8817 19V8.09091H62.5011V9.73864H62.6147C62.8136 9.19886 63.1734 8.76089 63.6942 8.42472C64.2151 8.08854 64.8022 7.92045 65.4556 7.92045C65.5787 7.92045 65.7326 7.92282 65.9173 7.92756C66.1019 7.93229 66.2416 7.93939 66.3363 7.94886V9.65341C66.2795 9.6392 66.1493 9.6179 65.9457 9.58949C65.7468 9.55634 65.5361 9.53977 65.3136 9.53977C64.7833 9.53977 64.3098 9.65104 63.8931 9.87358C63.4812 10.0914 63.1545 10.3944 62.913 10.7827C62.6763 11.1662 62.5579 11.6042 62.5579 12.0966V19H60.8817ZM71.5334 19.2557C70.8421 19.2557 70.2147 19.1255 69.6513 18.8651C69.0878 18.5999 68.6404 18.2188 68.3089 17.7216C67.9775 17.2197 67.8118 16.6136 67.8118 15.9034C67.8118 15.2784 67.9349 14.7718 68.1811 14.3835C68.4273 13.9905 68.7564 13.6828 69.1683 13.4602C69.5803 13.2377 70.0348 13.072 70.532 12.9631C71.0339 12.8494 71.5381 12.7595 72.0447 12.6932C72.7076 12.608 73.245 12.544 73.657 12.5014C74.0736 12.4541 74.3767 12.3759 74.5661 12.267C74.7602 12.1581 74.8572 11.9687 74.8572 11.6989V11.642C74.8572 10.9413 74.6655 10.3968 74.282 10.0085C73.9032 9.62027 73.3279 9.42614 72.5561 9.42614C71.7559 9.42614 71.1286 9.60133 70.674 9.9517C70.2195 10.3021 69.8999 10.6761 69.7152 11.0739L68.1243 10.5057C68.4084 9.8428 68.7872 9.3267 69.2607 8.95739C69.7389 8.58333 70.2597 8.32292 70.8232 8.17614C71.3913 8.02462 71.95 7.94886 72.4993 7.94886C72.8497 7.94886 73.2521 7.99148 73.7067 8.0767C74.166 8.1572 74.6087 8.32528 75.0348 8.58097C75.4657 8.83665 75.8232 9.22254 76.1072 9.73864C76.3913 10.2547 76.5334 10.946 76.5334 11.8125V19H74.8572V17.5227H74.772C74.6584 17.7595 74.469 18.0128 74.2038 18.2827C73.9387 18.5526 73.5859 18.7822 73.1456 18.9716C72.7053 19.161 72.1679 19.2557 71.5334 19.2557ZM71.7891 17.75C72.4519 17.75 73.0107 17.6198 73.4652 17.3594C73.9245 17.099 74.2701 16.7628 74.5021 16.3509C74.7389 15.9389 74.8572 15.5057 74.8572 15.0511V13.517C74.7862 13.6023 74.63 13.6804 74.3885 13.7514C74.1518 13.8177 73.8771 13.8769 73.5646 13.929C73.2569 13.9763 72.9562 14.0189 72.6626 14.0568C72.3738 14.09 72.1394 14.1184 71.9595 14.142C71.5239 14.1989 71.1167 14.2912 70.7379 14.419C70.3639 14.5421 70.0608 14.7292 69.8288 14.9801C69.6016 15.2263 69.4879 15.5625 69.4879 15.9886C69.4879 16.571 69.7034 17.0114 70.1342 17.3097C70.5698 17.6032 71.1214 17.75 71.7891 17.75ZM81.2688 12.4375V19H79.5927V8.09091H81.212V9.79545H81.354C81.6097 9.24148 81.998 8.7964 82.5188 8.46023C83.0397 8.11932 83.712 7.94886 84.5359 7.94886C85.2745 7.94886 85.9208 8.10038 86.4748 8.40341C87.0288 8.7017 87.4596 9.15625 87.7674 9.76705C88.0752 10.3731 88.229 11.1402 88.229 12.0682V19H86.5529V12.1818C86.5529 11.3248 86.3304 10.6572 85.8853 10.179C85.4402 9.69602 84.8294 9.45455 84.0529 9.45455C83.5179 9.45455 83.0397 9.57055 82.6183 9.80256C82.2016 10.0346 81.8725 10.3731 81.631 10.8182C81.3896 11.2633 81.2688 11.803 81.2688 12.4375ZM99.0192 10.5341L97.5135 10.9602C97.4188 10.7093 97.2791 10.4654 97.0945 10.2287C96.9145 9.98722 96.6683 9.78835 96.3558 9.6321C96.0433 9.47585 95.6432 9.39773 95.1555 9.39773C94.4879 9.39773 93.9316 9.55161 93.4865 9.85938C93.0462 10.1624 92.826 10.5483 92.826 11.017C92.826 11.4337 92.9775 11.7628 93.2805 12.0043C93.5836 12.2457 94.0571 12.447 94.701 12.608L96.3203 13.0057C97.2957 13.2424 98.0225 13.6046 98.5007 14.0923C98.9789 14.5753 99.218 15.1979 99.218 15.9602C99.218 16.5852 99.0381 17.1439 98.6783 17.6364C98.3232 18.1288 97.826 18.517 97.1868 18.8011C96.5476 19.0852 95.8042 19.2273 94.9567 19.2273C93.844 19.2273 92.9231 18.9858 92.1939 18.5028C91.4647 18.0199 91.0031 17.3144 90.8089 16.3864L92.3999 15.9886C92.5514 16.5758 92.8378 17.0161 93.2592 17.3097C93.6854 17.6032 94.2417 17.75 94.9283 17.75C95.7095 17.75 96.3298 17.5843 96.7891 17.2528C97.2531 16.9167 97.4851 16.5142 97.4851 16.0455C97.4851 15.6667 97.3525 15.3494 97.0874 15.0938C96.8222 14.8333 96.415 14.6392 95.8658 14.5114L94.0476 14.0852C93.0485 13.8485 92.3146 13.4815 91.8459 12.9844C91.3819 12.4825 91.1499 11.8551 91.1499 11.1023C91.1499 10.4867 91.3227 9.94223 91.6683 9.46875C92.0187 8.99527 92.4946 8.62358 93.0959 8.35369C93.7019 8.08381 94.3885 7.94886 95.1555 7.94886C96.2351 7.94886 97.0826 8.18561 97.6982 8.65909C98.3184 9.13258 98.7588 9.75758 99.0192 10.5341ZM103.417 4.45455V19H101.741V4.45455H103.417ZM109.697 19.2557C109.006 19.2557 108.379 19.1255 107.815 18.8651C107.252 18.5999 106.804 18.2188 106.473 17.7216C106.142 17.2197 105.976 16.6136 105.976 15.9034C105.976 15.2784 106.099 14.7718 106.345 14.3835C106.591 13.9905 106.92 13.6828 107.332 13.4602C107.744 13.2377 108.199 13.072 108.696 12.9631C109.198 12.8494 109.702 12.7595 110.209 12.6932C110.872 12.608 111.409 12.544 111.821 12.5014C112.238 12.4541 112.541 12.3759 112.73 12.267C112.924 12.1581 113.021 11.9687 113.021 11.6989V11.642C113.021 10.9413 112.83 10.3968 112.446 10.0085C112.067 9.62027 111.492 9.42614 110.72 9.42614C109.92 9.42614 109.293 9.60133 108.838 9.9517C108.384 10.3021 108.064 10.6761 107.879 11.0739L106.288 10.5057C106.572 9.8428 106.951 9.3267 107.425 8.95739C107.903 8.58333 108.424 8.32292 108.987 8.17614C109.555 8.02462 110.114 7.94886 110.663 7.94886C111.014 7.94886 111.416 7.99148 111.871 8.0767C112.33 8.1572 112.773 8.32528 113.199 8.58097C113.63 8.83665 113.987 9.22254 114.271 9.73864C114.555 10.2547 114.697 10.946 114.697 11.8125V19H113.021V17.5227H112.936C112.822 17.7595 112.633 18.0128 112.368 18.2827C112.103 18.5526 111.75 18.7822 111.31 18.9716C110.869 19.161 110.332 19.2557 109.697 19.2557ZM109.953 17.75C110.616 17.75 111.175 17.6198 111.629 17.3594C112.089 17.099 112.434 16.7628 112.666 16.3509C112.903 15.9389 113.021 15.5057 113.021 15.0511V13.517C112.95 13.6023 112.794 13.6804 112.553 13.7514C112.316 13.8177 112.041 13.8769 111.729 13.929C111.421 13.9763 111.12 14.0189 110.827 14.0568C110.538 14.09 110.304 14.1184 110.124 14.142C109.688 14.1989 109.281 14.2912 108.902 14.419C108.528 14.5421 108.225 14.7292 107.993 14.9801C107.766 15.2263 107.652 15.5625 107.652 15.9886C107.652 16.571 107.867 17.0114 108.298 17.3097C108.734 17.6032 109.286 17.75 109.953 17.75ZM122.501 8.09091V9.51136H116.848V8.09091H122.501ZM118.495 5.47727H120.172V15.875C120.172 16.3485 120.24 16.7036 120.377 16.9403C120.52 17.1723 120.699 17.3286 120.917 17.4091C121.14 17.4848 121.374 17.5227 121.62 17.5227C121.805 17.5227 121.957 17.5133 122.075 17.4943C122.193 17.4706 122.288 17.4517 122.359 17.4375L122.7 18.9432C122.586 18.9858 122.428 19.0284 122.224 19.071C122.02 19.1184 121.762 19.142 121.45 19.142C120.976 19.142 120.512 19.0402 120.058 18.8366C119.608 18.633 119.234 18.3229 118.936 17.9062C118.642 17.4896 118.495 16.964 118.495 16.3295V5.47727ZM125.022 19V8.09091H126.699V19H125.022ZM125.875 6.27273C125.548 6.27273 125.266 6.16146 125.029 5.93892C124.797 5.71638 124.681 5.44886 124.681 5.13636C124.681 4.82386 124.797 4.55634 125.029 4.33381C125.266 4.11127 125.548 4 125.875 4C126.201 4 126.481 4.11127 126.713 4.33381C126.949 4.55634 127.068 4.82386 127.068 5.13636C127.068 5.44886 126.949 5.71638 126.713 5.93892C126.481 6.16146 126.201 6.27273 125.875 6.27273ZM134.2 19.2273C133.215 19.2273 132.351 18.9929 131.608 18.5241C130.869 18.0554 130.292 17.3996 129.875 16.5568C129.463 15.714 129.257 14.7292 129.257 13.6023C129.257 12.4659 129.463 11.474 129.875 10.6264C130.292 9.77888 130.869 9.12074 131.608 8.65199C132.351 8.18324 133.215 7.94886 134.2 7.94886C135.185 7.94886 136.047 8.18324 136.786 8.65199C137.529 9.12074 138.107 9.77888 138.518 10.6264C138.935 11.474 139.143 12.4659 139.143 13.6023C139.143 14.7292 138.935 15.714 138.518 16.5568C138.107 17.3996 137.529 18.0554 136.786 18.5241C136.047 18.9929 135.185 19.2273 134.2 19.2273ZM134.2 17.7216C134.948 17.7216 135.564 17.5298 136.047 17.1463C136.53 16.7628 136.887 16.2585 137.119 15.6335C137.351 15.0085 137.467 14.3314 137.467 13.6023C137.467 12.8731 137.351 12.1937 137.119 11.5639C136.887 10.9342 136.53 10.4252 136.047 10.0369C135.564 9.64867 134.948 9.45455 134.2 9.45455C133.452 9.45455 132.837 9.64867 132.354 10.0369C131.871 10.4252 131.513 10.9342 131.281 11.5639C131.049 12.1937 130.933 12.8731 130.933 13.6023C130.933 14.3314 131.049 15.0085 131.281 15.6335C131.513 16.2585 131.871 16.7628 132.354 17.1463C132.837 17.5298 133.452 17.7216 134.2 17.7216ZM143.378 12.4375V19H141.702V8.09091H143.321V9.79545H143.463C143.719 9.24148 144.107 8.7964 144.628 8.46023C145.149 8.11932 145.821 7.94886 146.645 7.94886C147.384 7.94886 148.03 8.10038 148.584 8.40341C149.138 8.7017 149.569 9.15625 149.877 9.76705C150.185 10.3731 150.338 11.1402 150.338 12.0682V19H148.662V12.1818C148.662 11.3248 148.44 10.6572 147.995 10.179C147.55 9.69602 146.939 9.45455 146.162 9.45455C145.627 9.45455 145.149 9.57055 144.728 9.80256C144.311 10.0346 143.982 10.3731 143.74 10.8182C143.499 11.2633 143.378 11.803 143.378 12.4375Z" fill="#666666"/>
<path d="M4.74911 84L0.771839 69.4545H2.56161L5.60138 81.3011H5.74343L8.84002 69.4545H10.8287L13.9252 81.3011H14.0673L17.1071 69.4545H18.8968L14.9196 84H13.1014L9.89116 72.4091H9.77752L6.56729 84H4.74911ZM24.4224 84.2273C23.3713 84.2273 22.4645 83.9953 21.7022 83.5312C20.9447 83.0625 20.3599 82.4091 19.948 81.571C19.5408 80.7282 19.3372 79.7481 19.3372 78.6307C19.3372 77.5133 19.5408 76.5284 19.948 75.6761C20.3599 74.8191 20.9328 74.1515 21.6667 73.6733C22.4054 73.1903 23.2671 72.9489 24.252 72.9489C24.8201 72.9489 25.3812 73.0436 25.9352 73.233C26.4892 73.4223 26.9934 73.7301 27.448 74.1562C27.9025 74.5777 28.2647 75.1364 28.5346 75.8324C28.8045 76.5284 28.9395 77.3854 28.9395 78.4034V79.1136H20.5304V77.6648H27.2349C27.2349 77.0492 27.1118 76.5 26.8656 76.017C26.6241 75.5341 26.2785 75.1529 25.8287 74.8736C25.3836 74.5942 24.858 74.4545 24.252 74.4545C23.5843 74.4545 23.0067 74.6203 22.519 74.9517C22.036 75.2784 21.6644 75.7045 21.4039 76.2301C21.1435 76.7557 21.0133 77.3191 21.0133 77.9205V78.8864C21.0133 79.7102 21.1554 80.4086 21.4395 80.9815C21.7283 81.5497 22.1284 81.983 22.6397 82.2812C23.1511 82.5748 23.7453 82.7216 24.4224 82.7216C24.8627 82.7216 25.2605 82.66 25.6156 82.5369C25.9754 82.4091 26.2856 82.2197 26.546 81.9688C26.8064 81.7131 27.0076 81.3958 27.1497 81.017L28.769 81.4716C28.5985 82.0208 28.3121 82.5038 27.9096 82.9205C27.5072 83.3324 27.01 83.6544 26.4181 83.8864C25.8263 84.1136 25.161 84.2273 24.4224 84.2273ZM31.7164 84V69.4545H33.3926V74.8239H33.5346C33.6577 74.6345 33.8282 74.393 34.046 74.0994C34.2685 73.8011 34.5858 73.536 34.9977 73.304C35.4144 73.0672 35.9778 72.9489 36.688 72.9489C37.6066 72.9489 38.4163 73.1785 39.117 73.6378C39.8178 74.0971 40.3646 74.7481 40.7576 75.5909C41.1506 76.4337 41.3471 77.428 41.3471 78.5739C41.3471 79.7292 41.1506 80.7306 40.7576 81.5781C40.3646 82.4209 39.8201 83.0743 39.1241 83.5384C38.4281 83.9976 37.6255 84.2273 36.7164 84.2273C36.0157 84.2273 35.4546 84.1113 35.0332 83.8793C34.6118 83.6425 34.2875 83.375 34.0602 83.0767C33.8329 82.7737 33.6577 82.5227 33.5346 82.3239H33.3358V84H31.7164ZM33.3642 78.5455C33.3642 79.3693 33.4849 80.0961 33.7264 80.7259C33.9679 81.3509 34.3206 81.8409 34.7846 82.196C35.2486 82.5464 35.8168 82.7216 36.4892 82.7216C37.1899 82.7216 37.7747 82.5369 38.2434 82.1676C38.7169 81.7936 39.072 81.2917 39.3088 80.6619C39.5502 80.0275 39.671 79.322 39.671 78.5455C39.671 77.7784 39.5526 77.0871 39.3159 76.4716C39.0839 75.8513 38.7311 75.3613 38.2576 75.0014C37.7889 74.6368 37.1994 74.4545 36.4892 74.4545C35.8074 74.4545 35.2344 74.6274 34.7704 74.973C34.3064 75.3139 33.956 75.7921 33.7193 76.4077C33.4825 77.0185 33.3642 77.7311 33.3642 78.5455ZM51.6383 75.5341L50.1326 75.9602C50.0379 75.7093 49.8983 75.4654 49.7136 75.2287C49.5337 74.9872 49.2875 74.7884 48.975 74.6321C48.6625 74.4759 48.2624 74.3977 47.7747 74.3977C47.1071 74.3977 46.5507 74.5516 46.1056 74.8594C45.6653 75.1624 45.4451 75.5483 45.4451 76.017C45.4451 76.4337 45.5967 76.7628 45.8997 77.0043C46.2027 77.2457 46.6762 77.447 47.3201 77.608L48.9395 78.0057C49.9148 78.2424 50.6416 78.6046 51.1199 79.0923C51.5981 79.5753 51.8372 80.1979 51.8372 80.9602C51.8372 81.5852 51.6573 82.1439 51.2974 82.6364C50.9423 83.1288 50.4451 83.517 49.8059 83.8011C49.1667 84.0852 48.4234 84.2273 47.5758 84.2273C46.4631 84.2273 45.5422 83.9858 44.813 83.5028C44.0839 83.0199 43.6222 82.3144 43.4281 81.3864L45.019 80.9886C45.1705 81.5758 45.457 82.0161 45.8784 82.3097C46.3045 82.6032 46.8609 82.75 47.5474 82.75C48.3287 82.75 48.9489 82.5843 49.4082 82.2528C49.8722 81.9167 50.1042 81.5142 50.1042 81.0455C50.1042 80.6667 49.9717 80.3494 49.7065 80.0938C49.4413 79.8333 49.0342 79.6392 48.4849 79.5114L46.6667 79.0852C45.6677 78.8485 44.9338 78.4815 44.465 77.9844C44.001 77.4825 43.769 76.8551 43.769 76.1023C43.769 75.4867 43.9418 74.9422 44.2875 74.4688C44.6378 73.9953 45.1137 73.6236 45.715 73.3537C46.3211 73.0838 47.0076 72.9489 47.7747 72.9489C48.8542 72.9489 49.7018 73.1856 50.3173 73.6591C50.9376 74.1326 51.3779 74.7576 51.6383 75.5341ZM54.3603 84V73.0909H56.0364V84H54.3603ZM55.2125 71.2727C54.8858 71.2727 54.6041 71.1615 54.3674 70.9389C54.1354 70.7164 54.0194 70.4489 54.0194 70.1364C54.0194 69.8239 54.1354 69.5563 54.3674 69.3338C54.6041 69.1113 54.8858 69 55.2125 69C55.5392 69 55.8186 69.1113 56.0506 69.3338C56.2873 69.5563 56.4057 69.8239 56.4057 70.1364C56.4057 70.4489 56.2873 70.7164 56.0506 70.9389C55.8186 71.1615 55.5392 71.2727 55.2125 71.2727ZM63.8507 73.0909V74.5114H58.1973V73.0909H63.8507ZM59.845 70.4773H61.5211V80.875C61.5211 81.3485 61.5898 81.7036 61.7271 81.9403C61.8691 82.1723 62.0491 82.3286 62.2669 82.4091C62.4894 82.4848 62.7238 82.5227 62.97 82.5227C63.1547 82.5227 63.3062 82.5133 63.4245 82.4943C63.5429 82.4706 63.6376 82.4517 63.7086 82.4375L64.0495 83.9432C63.9359 83.9858 63.7773 84.0284 63.5737 84.071C63.3701 84.1184 63.112 84.142 62.7995 84.142C62.3261 84.142 61.862 84.0402 61.4075 83.8366C60.9577 83.633 60.5836 83.3229 60.2853 82.9062C59.9918 82.4896 59.845 81.964 59.845 81.3295V70.4773ZM70.8287 84.2273C69.7775 84.2273 68.8708 83.9953 68.1085 83.5312C67.3509 83.0625 66.7662 82.4091 66.3542 81.571C65.947 80.7282 65.7434 79.7481 65.7434 78.6307C65.7434 77.5133 65.947 76.5284 66.3542 75.6761C66.7662 74.8191 67.3391 74.1515 68.073 73.6733C68.8116 73.1903 69.6734 72.9489 70.6582 72.9489C71.2264 72.9489 71.7875 73.0436 72.3414 73.233C72.8954 73.4223 73.3997 73.7301 73.8542 74.1562C74.3088 74.5777 74.671 75.1364 74.9409 75.8324C75.2108 76.5284 75.3457 77.3854 75.3457 78.4034V79.1136H66.9366V77.6648H73.6412C73.6412 77.0492 73.5181 76.5 73.2718 76.017C73.0304 75.5341 72.6847 75.1529 72.2349 74.8736C71.7898 74.5942 71.2643 74.4545 70.6582 74.4545C69.9906 74.4545 69.4129 74.6203 68.9252 74.9517C68.4423 75.2784 68.0706 75.7045 67.8102 76.2301C67.5498 76.7557 67.4196 77.3191 67.4196 77.9205V78.8864C67.4196 79.7102 67.5616 80.4086 67.8457 80.9815C68.1345 81.5497 68.5346 81.983 69.046 82.2812C69.5574 82.5748 70.1516 82.7216 70.8287 82.7216C71.269 82.7216 71.6667 82.66 72.0218 82.5369C72.3817 82.4091 72.6918 82.2197 72.9522 81.9688C73.2127 81.7131 73.4139 81.3958 73.5559 81.017L75.1752 81.4716C75.0048 82.0208 74.7183 82.5038 74.3159 82.9205C73.9134 83.3324 73.4163 83.6544 72.8244 83.8864C72.2325 84.1136 71.5673 84.2273 70.8287 84.2273ZM82.9522 71.017V69.4545H93.8613V71.017H89.2875V84H87.5261V71.017H82.9522ZM95.2196 84V73.0909H96.839V74.7386H96.9526C97.1515 74.1989 97.5113 73.7609 98.0321 73.4247C98.553 73.0885 99.1401 72.9205 99.7935 72.9205C99.9166 72.9205 100.07 72.9228 100.255 72.9276C100.44 72.9323 100.579 72.9394 100.674 72.9489V74.6534C100.617 74.6392 100.487 74.6179 100.284 74.5895C100.085 74.5563 99.874 74.5398 99.6515 74.5398C99.1212 74.5398 98.6477 74.651 98.231 74.8736C97.8191 75.0914 97.4924 75.3944 97.2509 75.7827C97.0141 76.1662 96.8958 76.6042 96.8958 77.0966V84H95.2196ZM105.871 84.2557C105.18 84.2557 104.553 84.1255 103.989 83.8651C103.426 83.5999 102.978 83.2188 102.647 82.7216C102.315 82.2197 102.15 81.6136 102.15 80.9034C102.15 80.2784 102.273 79.7718 102.519 79.3835C102.765 78.9905 103.094 78.6828 103.506 78.4602C103.918 78.2377 104.373 78.072 104.87 77.9631C105.372 77.8494 105.876 77.7595 106.383 77.6932C107.046 77.608 107.583 77.544 107.995 77.5014C108.412 77.4541 108.715 77.3759 108.904 77.267C109.098 77.1581 109.195 76.9687 109.195 76.6989V76.642C109.195 75.9413 109.003 75.3968 108.62 75.0085C108.241 74.6203 107.666 74.4261 106.894 74.4261C106.094 74.4261 105.466 74.6013 105.012 74.9517C104.557 75.3021 104.238 75.6761 104.053 76.0739L102.462 75.5057C102.746 74.8428 103.125 74.3267 103.599 73.9574C104.077 73.5833 104.598 73.3229 105.161 73.1761C105.729 73.0246 106.288 72.9489 106.837 72.9489C107.188 72.9489 107.59 72.9915 108.045 73.0767C108.504 73.1572 108.947 73.3253 109.373 73.581C109.804 73.8366 110.161 74.2225 110.445 74.7386C110.729 75.2547 110.871 75.946 110.871 76.8125V84H109.195V82.5227H109.11C108.996 82.7595 108.807 83.0128 108.542 83.2827C108.277 83.5526 107.924 83.7822 107.483 83.9716C107.043 84.161 106.506 84.2557 105.871 84.2557ZM106.127 82.75C106.79 82.75 107.349 82.6198 107.803 82.3594C108.262 82.099 108.608 81.7628 108.84 81.3509C109.077 80.9389 109.195 80.5057 109.195 80.0511V78.517C109.124 78.6023 108.968 78.6804 108.726 78.7514C108.49 78.8177 108.215 78.8769 107.903 78.929C107.595 78.9763 107.294 79.0189 107.001 79.0568C106.712 79.09 106.477 79.1184 106.297 79.142C105.862 79.1989 105.455 79.2912 105.076 79.419C104.702 79.5421 104.399 79.7292 104.167 79.9801C103.939 80.2263 103.826 80.5625 103.826 80.9886C103.826 81.571 104.041 82.0114 104.472 82.3097C104.908 82.6032 105.459 82.75 106.127 82.75ZM115.607 77.4375V84H113.931V73.0909H115.55V74.7955H115.692C115.948 74.2415 116.336 73.7964 116.857 73.4602C117.378 73.1193 118.05 72.9489 118.874 72.9489C119.612 72.9489 120.259 73.1004 120.813 73.4034C121.367 73.7017 121.798 74.1562 122.105 74.767C122.413 75.3731 122.567 76.1402 122.567 77.0682V84H120.891V77.1818C120.891 76.3248 120.668 75.6572 120.223 75.179C119.778 74.696 119.167 74.4545 118.391 74.4545C117.856 74.4545 117.378 74.5705 116.956 74.8026C116.539 75.0346 116.21 75.3731 115.969 75.8182C115.727 76.2633 115.607 76.803 115.607 77.4375ZM133.357 75.5341L131.851 75.9602C131.757 75.7093 131.617 75.4654 131.432 75.2287C131.252 74.9872 131.006 74.7884 130.694 74.6321C130.381 74.4759 129.981 74.3977 129.493 74.3977C128.826 74.3977 128.269 74.5516 127.824 74.8594C127.384 75.1624 127.164 75.5483 127.164 76.017C127.164 76.4337 127.315 76.7628 127.618 77.0043C127.921 77.2457 128.395 77.447 129.039 77.608L130.658 78.0057C131.634 78.2424 132.36 78.6046 132.839 79.0923C133.317 79.5753 133.556 80.1979 133.556 80.9602C133.556 81.5852 133.376 82.1439 133.016 82.6364C132.661 83.1288 132.164 83.517 131.525 83.8011C130.885 84.0852 130.142 84.2273 129.295 84.2273C128.182 84.2273 127.261 83.9858 126.532 83.5028C125.803 83.0199 125.341 82.3144 125.147 81.3864L126.738 80.9886C126.889 81.5758 127.176 82.0161 127.597 82.3097C128.023 82.6032 128.58 82.75 129.266 82.75C130.047 82.75 130.668 82.5843 131.127 82.2528C131.591 81.9167 131.823 81.5142 131.823 81.0455C131.823 80.6667 131.69 80.3494 131.425 80.0938C131.16 79.8333 130.753 79.6392 130.204 79.5114L128.385 79.0852C127.386 78.8485 126.653 78.4815 126.184 77.9844C125.72 77.4825 125.488 76.8551 125.488 76.1023C125.488 75.4867 125.661 74.9422 126.006 74.4688C126.357 73.9953 126.832 73.6236 127.434 73.3537C128.04 73.0838 128.726 72.9489 129.493 72.9489C130.573 72.9489 131.421 73.1856 132.036 73.6591C132.656 74.1326 133.097 74.7576 133.357 75.5341ZM137.755 69.4545V84H136.079V69.4545H137.755ZM144.035 84.2557C143.344 84.2557 142.717 84.1255 142.153 83.8651C141.59 83.5999 141.142 83.2188 140.811 82.7216C140.479 82.2197 140.314 81.6136 140.314 80.9034C140.314 80.2784 140.437 79.7718 140.683 79.3835C140.929 78.9905 141.258 78.6828 141.67 78.4602C142.082 78.2377 142.537 78.072 143.034 77.9631C143.536 77.8494 144.04 77.7595 144.547 77.6932C145.21 77.608 145.747 77.544 146.159 77.5014C146.576 77.4541 146.879 77.3759 147.068 77.267C147.262 77.1581 147.359 76.9687 147.359 76.6989V76.642C147.359 75.9413 147.167 75.3968 146.784 75.0085C146.405 74.6203 145.83 74.4261 145.058 74.4261C144.258 74.4261 143.631 74.6013 143.176 74.9517C142.721 75.3021 142.402 75.6761 142.217 76.0739L140.626 75.5057C140.91 74.8428 141.289 74.3267 141.763 73.9574C142.241 73.5833 142.762 73.3229 143.325 73.1761C143.893 73.0246 144.452 72.9489 145.001 72.9489C145.352 72.9489 145.754 72.9915 146.209 73.0767C146.668 73.1572 147.111 73.3253 147.537 73.581C147.968 73.8366 148.325 74.2225 148.609 74.7386C148.893 75.2547 149.035 75.946 149.035 76.8125V84H147.359V82.5227H147.274C147.16 82.7595 146.971 83.0128 146.706 83.2827C146.441 83.5526 146.088 83.7822 145.648 83.9716C145.207 84.161 144.67 84.2557 144.035 84.2557ZM144.291 82.75C144.954 82.75 145.513 82.6198 145.967 82.3594C146.426 82.099 146.772 81.7628 147.004 81.3509C147.241 80.9389 147.359 80.5057 147.359 80.0511V78.517C147.288 78.6023 147.132 78.6804 146.89 78.7514C146.654 78.8177 146.379 78.8769 146.067 78.929C145.759 78.9763 145.458 79.0189 145.165 79.0568C144.876 79.09 144.641 79.1184 144.461 79.142C144.026 79.1989 143.619 79.2912 143.24 79.419C142.866 79.5421 142.563 79.7292 142.331 79.9801C142.104 80.2263 141.99 80.5625 141.99 80.9886C141.99 81.571 142.205 82.0114 142.636 82.3097C143.072 82.6032 143.623 82.75 144.291 82.75ZM156.839 73.0909V74.5114H151.186V73.0909H156.839ZM152.833 70.4773H154.509V80.875C154.509 81.3485 154.578 81.7036 154.715 81.9403C154.857 82.1723 155.037 82.3286 155.255 82.4091C155.478 82.4848 155.712 82.5227 155.958 82.5227C156.143 82.5227 156.294 82.5133 156.413 82.4943C156.531 82.4706 156.626 82.4517 156.697 82.4375L157.038 83.9432C156.924 83.9858 156.766 84.0284 156.562 84.071C156.358 84.1184 156.1 84.142 155.788 84.142C155.314 84.142 154.85 84.0402 154.396 83.8366C153.946 83.633 153.572 83.3229 153.274 82.9062C152.98 82.4896 152.833 81.964 152.833 81.3295V70.4773ZM159.36 84V73.0909H161.036V84H159.36ZM160.213 71.2727C159.886 71.2727 159.604 71.1615 159.367 70.9389C159.135 70.7164 159.019 70.4489 159.019 70.1364C159.019 69.8239 159.135 69.5563 159.367 69.3338C159.604 69.1113 159.886 69 160.213 69C160.539 69 160.819 69.1113 161.051 69.3338C161.287 69.5563 161.406 69.8239 161.406 70.1364C161.406 70.4489 161.287 70.7164 161.051 70.9389C160.819 71.1615 160.539 71.2727 160.213 71.2727ZM168.538 84.2273C167.553 84.2273 166.689 83.9929 165.946 83.5241C165.207 83.0554 164.63 82.3996 164.213 81.5568C163.801 80.714 163.595 79.7292 163.595 78.6023C163.595 77.4659 163.801 76.474 164.213 75.6264C164.63 74.7789 165.207 74.1207 165.946 73.652C166.689 73.1832 167.553 72.9489 168.538 72.9489C169.523 72.9489 170.385 73.1832 171.123 73.652C171.867 74.1207 172.444 74.7789 172.856 75.6264C173.273 76.474 173.481 77.4659 173.481 78.6023C173.481 79.7292 173.273 80.714 172.856 81.5568C172.444 82.3996 171.867 83.0554 171.123 83.5241C170.385 83.9929 169.523 84.2273 168.538 84.2273ZM168.538 82.7216C169.286 82.7216 169.902 82.5298 170.385 82.1463C170.868 81.7628 171.225 81.2585 171.457 80.6335C171.689 80.0085 171.805 79.3314 171.805 78.6023C171.805 77.8731 171.689 77.1937 171.457 76.5639C171.225 75.9342 170.868 75.4252 170.385 75.0369C169.902 74.6487 169.286 74.4545 168.538 74.4545C167.79 74.4545 167.175 74.6487 166.692 75.0369C166.209 75.4252 165.851 75.9342 165.619 76.5639C165.387 77.1937 165.271 77.8731 165.271 78.6023C165.271 79.3314 165.387 80.0085 165.619 80.6335C165.851 81.2585 166.209 81.7628 166.692 82.1463C167.175 82.5298 167.79 82.7216 168.538 82.7216ZM177.716 77.4375V84H176.04V73.0909H177.659V74.7955H177.801C178.057 74.2415 178.445 73.7964 178.966 73.4602C179.487 73.1193 180.159 72.9489 180.983 72.9489C181.722 72.9489 182.368 73.1004 182.922 73.4034C183.476 73.7017 183.907 74.1562 184.215 74.767C184.522 75.3731 184.676 76.1402 184.676 77.0682V84H183V77.1818C183 76.3248 182.778 75.6572 182.333 75.179C181.887 74.696 181.277 74.4545 180.5 74.4545C179.965 74.4545 179.487 74.5705 179.066 74.8026C178.649 75.0346 178.32 75.3731 178.078 75.8182C177.837 76.2633 177.716 76.803 177.716 77.4375ZM195.466 75.5341L193.961 75.9602C193.866 75.7093 193.726 75.4654 193.542 75.2287C193.362 74.9872 193.116 74.7884 192.803 74.6321C192.491 74.4759 192.09 74.3977 191.603 74.3977C190.935 74.3977 190.379 74.5516 189.934 74.8594C189.493 75.1624 189.273 75.5483 189.273 76.017C189.273 76.4337 189.425 76.7628 189.728 77.0043C190.031 77.2457 190.504 77.447 191.148 77.608L192.768 78.0057C193.743 78.2424 194.47 78.6046 194.948 79.0923C195.426 79.5753 195.665 80.1979 195.665 80.9602C195.665 81.5852 195.485 82.1439 195.126 82.6364C194.77 83.1288 194.273 83.517 193.634 83.8011C192.995 84.0852 192.251 84.2273 191.404 84.2273C190.291 84.2273 189.37 83.9858 188.641 83.5028C187.912 83.0199 187.45 82.3144 187.256 81.3864L188.847 80.9886C188.999 81.5758 189.285 82.0161 189.706 82.3097C190.133 82.6032 190.689 82.75 191.376 82.75C192.157 82.75 192.777 82.5843 193.236 82.2528C193.7 81.9167 193.932 81.5142 193.932 81.0455C193.932 80.6667 193.8 80.3494 193.535 80.0938C193.269 79.8333 192.862 79.6392 192.313 79.5114L190.495 79.0852C189.496 78.8485 188.762 78.4815 188.293 77.9844C187.829 77.4825 187.597 76.8551 187.597 76.1023C187.597 75.4867 187.77 74.9422 188.116 74.4688C188.466 73.9953 188.942 73.6236 189.543 73.3537C190.149 73.0838 190.836 72.9489 191.603 72.9489C192.682 72.9489 193.53 73.1856 194.145 73.6591C194.766 74.1326 195.206 74.7576 195.466 75.5341Z" fill="#666666"/>
<path d="M4.27113 137.455H6.3734L11.3166 149.528H11.487L16.4302 137.455H18.5325V152H16.8848V140.949H16.7427L12.1973 152H10.6064L6.0609 140.949H5.91886V152H4.27113V137.455ZM25.0471 152.256C24.3558 152.256 23.7284 152.125 23.165 151.865C22.6015 151.6 22.1541 151.219 21.8226 150.722C21.4912 150.22 21.3255 149.614 21.3255 148.903C21.3255 148.278 21.4486 147.772 21.6948 147.384C21.941 146.991 22.2701 146.683 22.682 146.46C23.0939 146.238 23.5485 146.072 24.0456 145.963C24.5475 145.849 25.0518 145.759 25.5584 145.693C26.2213 145.608 26.7587 145.544 27.1706 145.501C27.5873 145.454 27.8903 145.376 28.0797 145.267C28.2739 145.158 28.3709 144.969 28.3709 144.699V144.642C28.3709 143.941 28.1792 143.397 27.7956 143.009C27.4168 142.62 26.8416 142.426 26.0698 142.426C25.2696 142.426 24.6422 142.601 24.1877 142.952C23.7331 143.302 23.4135 143.676 23.2289 144.074L21.638 143.506C21.9221 142.843 22.3008 142.327 22.7743 141.957C23.2525 141.583 23.7734 141.323 24.3368 141.176C24.905 141.025 25.4637 140.949 26.013 140.949C26.3633 140.949 26.7658 140.991 27.2203 141.077C27.6796 141.157 28.1223 141.325 28.5485 141.581C28.9793 141.837 29.3368 142.223 29.6209 142.739C29.905 143.255 30.0471 143.946 30.0471 144.812V152H28.3709V150.523H28.2857C28.1721 150.759 27.9827 151.013 27.7175 151.283C27.4524 151.553 27.0996 151.782 26.6593 151.972C26.2189 152.161 25.6815 152.256 25.0471 152.256ZM25.3027 150.75C25.9656 150.75 26.5243 150.62 26.9789 150.359C27.4382 150.099 27.7838 149.763 28.0158 149.351C28.2525 148.939 28.3709 148.506 28.3709 148.051V146.517C28.2999 146.602 28.1436 146.68 27.9022 146.751C27.6654 146.818 27.3908 146.877 27.0783 146.929C26.7705 146.976 26.4699 147.019 26.1763 147.057C25.8875 147.09 25.6531 147.118 25.4732 147.142C25.0376 147.199 24.6304 147.291 24.2516 147.419C23.8775 147.542 23.5745 147.729 23.3425 147.98C23.1152 148.226 23.0016 148.562 23.0016 148.989C23.0016 149.571 23.217 150.011 23.6479 150.31C24.0835 150.603 24.6351 150.75 25.3027 150.75ZM37.5382 152.227C36.5154 152.227 35.6348 151.986 34.8961 151.503C34.1575 151.02 33.5893 150.355 33.1916 149.507C32.7939 148.66 32.595 147.691 32.595 146.602C32.595 145.494 32.7986 144.517 33.2058 143.669C33.6177 142.817 34.1906 142.152 34.9245 141.673C35.6632 141.19 36.5249 140.949 37.5098 140.949C38.2768 140.949 38.9681 141.091 39.5836 141.375C40.1992 141.659 40.7034 142.057 41.0964 142.568C41.4894 143.08 41.7333 143.676 41.8279 144.358H40.1518C40.024 143.861 39.7399 143.42 39.2995 143.037C38.8639 142.649 38.2768 142.455 37.5382 142.455C36.8848 142.455 36.3118 142.625 35.8194 142.966C35.3317 143.302 34.9506 143.778 34.676 144.393C34.4061 145.004 34.2711 145.722 34.2711 146.545C34.2711 147.388 34.4037 148.122 34.6689 148.747C34.9387 149.372 35.3175 149.857 35.8052 150.203C36.2976 150.549 36.8753 150.722 37.5382 150.722C37.9738 150.722 38.3691 150.646 38.7243 150.494C39.0794 150.343 39.38 150.125 39.6262 149.841C39.8725 149.557 40.0476 149.216 40.1518 148.818H41.8279C41.7333 149.462 41.4989 150.042 41.1248 150.558C40.7555 151.07 40.2654 151.477 39.6547 151.78C39.0486 152.078 38.3431 152.227 37.5382 152.227ZM45.9544 145.438V152H44.2782V137.455H45.9544V142.795H46.0964C46.3521 142.232 46.7356 141.785 47.247 141.453C47.7631 141.117 48.4496 140.949 49.3066 140.949C50.05 140.949 50.7011 141.098 51.2598 141.396C51.8185 141.69 52.2517 142.142 52.5595 142.753C52.872 143.359 53.0282 144.131 53.0282 145.068V152H51.3521V145.182C51.3521 144.315 51.1272 143.645 50.6774 143.172C50.2323 142.694 49.6144 142.455 48.8237 142.455C48.2744 142.455 47.782 142.571 47.3464 142.803C46.9155 143.035 46.5746 143.373 46.3237 143.818C46.0775 144.263 45.9544 144.803 45.9544 145.438ZM56.0946 152V141.091H57.7708V152H56.0946ZM56.9469 139.273C56.6202 139.273 56.3385 139.161 56.1017 138.939C55.8697 138.716 55.7537 138.449 55.7537 138.136C55.7537 137.824 55.8697 137.556 56.1017 137.334C56.3385 137.111 56.6202 137 56.9469 137C57.2736 137 57.553 137.111 57.785 137.334C58.0217 137.556 58.1401 137.824 58.1401 138.136C58.1401 138.449 58.0217 138.716 57.785 138.939C57.553 139.161 57.2736 139.273 56.9469 139.273ZM62.5169 145.438V152H60.8407V141.091H62.46V142.795H62.6021C62.8578 142.241 63.246 141.796 63.7669 141.46C64.2877 141.119 64.96 140.949 65.7839 140.949C66.5225 140.949 67.1689 141.1 67.7228 141.403C68.2768 141.702 68.7077 142.156 69.0154 142.767C69.3232 143.373 69.4771 144.14 69.4771 145.068V152H67.801V145.182C67.801 144.325 67.5784 143.657 67.1333 143.179C66.6883 142.696 66.0775 142.455 65.301 142.455C64.7659 142.455 64.2877 142.571 63.8663 142.803C63.4496 143.035 63.1206 143.373 62.8791 143.818C62.6376 144.263 62.5169 144.803 62.5169 145.438ZM77.1138 152.227C76.0627 152.227 75.156 151.995 74.3936 151.531C73.6361 151.062 73.0513 150.409 72.6394 149.571C72.2322 148.728 72.0286 147.748 72.0286 146.631C72.0286 145.513 72.2322 144.528 72.6394 143.676C73.0513 142.819 73.6242 142.152 74.3581 141.673C75.0968 141.19 75.9585 140.949 76.9434 140.949C77.5115 140.949 78.0726 141.044 78.6266 141.233C79.1806 141.422 79.6848 141.73 80.1394 142.156C80.5939 142.578 80.9561 143.136 81.226 143.832C81.4959 144.528 81.6309 145.385 81.6309 146.403V147.114H73.2218V145.665H79.9263C79.9263 145.049 79.8032 144.5 79.557 144.017C79.3155 143.534 78.9699 143.153 78.5201 142.874C78.075 142.594 77.5494 142.455 76.9434 142.455C76.2757 142.455 75.6981 142.62 75.2104 142.952C74.7275 143.278 74.3558 143.705 74.0953 144.23C73.8349 144.756 73.7047 145.319 73.7047 145.92V146.886C73.7047 147.71 73.8468 148.409 74.1309 148.982C74.4197 149.55 74.8198 149.983 75.3311 150.281C75.8425 150.575 76.4367 150.722 77.1138 150.722C77.5542 150.722 77.9519 150.66 78.307 150.537C78.6668 150.409 78.977 150.22 79.2374 149.969C79.4978 149.713 79.699 149.396 79.8411 149.017L81.4604 149.472C81.29 150.021 81.0035 150.504 80.601 150.92C80.1986 151.332 79.7014 151.654 79.1096 151.886C78.5177 152.114 77.8525 152.227 77.1138 152.227ZM89.2374 139.017V137.455H100.146V139.017H95.5726V152H93.8113V139.017H89.2374ZM101.505 152V141.091H103.124V142.739H103.238C103.437 142.199 103.796 141.761 104.317 141.425C104.838 141.089 105.425 140.92 106.079 140.92C106.202 140.92 106.356 140.923 106.54 140.928C106.725 140.932 106.865 140.939 106.959 140.949V142.653C106.903 142.639 106.772 142.618 106.569 142.589C106.37 142.556 106.159 142.54 105.937 142.54C105.406 142.54 104.933 142.651 104.516 142.874C104.104 143.091 103.778 143.394 103.536 143.783C103.299 144.166 103.181 144.604 103.181 145.097V152H101.505ZM112.156 152.256C111.465 152.256 110.838 152.125 110.274 151.865C109.711 151.6 109.263 151.219 108.932 150.722C108.601 150.22 108.435 149.614 108.435 148.903C108.435 148.278 108.558 147.772 108.804 147.384C109.05 146.991 109.379 146.683 109.791 146.46C110.203 146.238 110.658 146.072 111.155 145.963C111.657 145.849 112.161 145.759 112.668 145.693C113.331 145.608 113.868 145.544 114.28 145.501C114.697 145.454 115 145.376 115.189 145.267C115.383 145.158 115.48 144.969 115.48 144.699V144.642C115.48 143.941 115.289 143.397 114.905 143.009C114.526 142.62 113.951 142.426 113.179 142.426C112.379 142.426 111.752 142.601 111.297 142.952C110.843 143.302 110.523 143.676 110.338 144.074L108.747 143.506C109.031 142.843 109.41 142.327 109.884 141.957C110.362 141.583 110.883 141.323 111.446 141.176C112.014 141.025 112.573 140.949 113.122 140.949C113.473 140.949 113.875 140.991 114.33 141.077C114.789 141.157 115.232 141.325 115.658 141.581C116.089 141.837 116.446 142.223 116.73 142.739C117.014 143.255 117.156 143.946 117.156 144.812V152H115.48V150.523H115.395C115.281 150.759 115.092 151.013 114.827 151.283C114.562 151.553 114.209 151.782 113.769 151.972C113.328 152.161 112.791 152.256 112.156 152.256ZM112.412 150.75C113.075 150.75 113.634 150.62 114.088 150.359C114.548 150.099 114.893 149.763 115.125 149.351C115.362 148.939 115.48 148.506 115.48 148.051V146.517C115.409 146.602 115.253 146.68 115.012 146.751C114.775 146.818 114.5 146.877 114.188 146.929C113.88 146.976 113.579 147.019 113.286 147.057C112.997 147.09 112.762 147.118 112.583 147.142C112.147 147.199 111.74 147.291 111.361 147.419C110.987 147.542 110.684 147.729 110.452 147.98C110.225 148.226 110.111 148.562 110.111 148.989C110.111 149.571 110.326 150.011 110.757 150.31C111.193 150.603 111.744 150.75 112.412 150.75ZM121.892 145.438V152H120.216V141.091H121.835V142.795H121.977C122.233 142.241 122.621 141.796 123.142 141.46C123.663 141.119 124.335 140.949 125.159 140.949C125.898 140.949 126.544 141.1 127.098 141.403C127.652 141.702 128.083 142.156 128.39 142.767C128.698 143.373 128.852 144.14 128.852 145.068V152H127.176V145.182C127.176 144.325 126.953 143.657 126.508 143.179C126.063 142.696 125.452 142.455 124.676 142.455C124.141 142.455 123.663 142.571 123.241 142.803C122.825 143.035 122.496 143.373 122.254 143.818C122.013 144.263 121.892 144.803 121.892 145.438ZM139.642 143.534L138.137 143.96C138.042 143.709 137.902 143.465 137.718 143.229C137.538 142.987 137.291 142.788 136.979 142.632C136.666 142.476 136.266 142.398 135.779 142.398C135.111 142.398 134.555 142.552 134.11 142.859C133.669 143.162 133.449 143.548 133.449 144.017C133.449 144.434 133.601 144.763 133.904 145.004C134.207 145.246 134.68 145.447 135.324 145.608L136.943 146.006C137.919 146.242 138.646 146.605 139.124 147.092C139.602 147.575 139.841 148.198 139.841 148.96C139.841 149.585 139.661 150.144 139.301 150.636C138.946 151.129 138.449 151.517 137.81 151.801C137.171 152.085 136.427 152.227 135.58 152.227C134.467 152.227 133.546 151.986 132.817 151.503C132.088 151.02 131.626 150.314 131.432 149.386L133.023 148.989C133.174 149.576 133.461 150.016 133.882 150.31C134.308 150.603 134.865 150.75 135.551 150.75C136.333 150.75 136.953 150.584 137.412 150.253C137.876 149.917 138.108 149.514 138.108 149.045C138.108 148.667 137.976 148.349 137.71 148.094C137.445 147.833 137.038 147.639 136.489 147.511L134.671 147.085C133.672 146.848 132.938 146.482 132.469 145.984C132.005 145.482 131.773 144.855 131.773 144.102C131.773 143.487 131.946 142.942 132.291 142.469C132.642 141.995 133.118 141.624 133.719 141.354C134.325 141.084 135.012 140.949 135.779 140.949C136.858 140.949 137.706 141.186 138.321 141.659C138.941 142.133 139.382 142.758 139.642 143.534ZM144.04 137.455V152H142.364V137.455H144.04ZM150.32 152.256C149.629 152.256 149.002 152.125 148.438 151.865C147.875 151.6 147.427 151.219 147.096 150.722C146.765 150.22 146.599 149.614 146.599 148.903C146.599 148.278 146.722 147.772 146.968 147.384C147.214 146.991 147.544 146.683 147.955 146.46C148.367 146.238 148.822 146.072 149.319 145.963C149.821 145.849 150.325 145.759 150.832 145.693C151.495 145.608 152.032 145.544 152.444 145.501C152.861 145.454 153.164 145.376 153.353 145.267C153.547 145.158 153.644 144.969 153.644 144.699V144.642C153.644 143.941 153.453 143.397 153.069 143.009C152.69 142.62 152.115 142.426 151.343 142.426C150.543 142.426 149.916 142.601 149.461 142.952C149.007 143.302 148.687 143.676 148.502 144.074L146.911 143.506C147.195 142.843 147.574 142.327 148.048 141.957C148.526 141.583 149.047 141.323 149.61 141.176C150.178 141.025 150.737 140.949 151.286 140.949C151.637 140.949 152.039 140.991 152.494 141.077C152.953 141.157 153.396 141.325 153.822 141.581C154.253 141.837 154.61 142.223 154.894 142.739C155.178 143.255 155.32 143.946 155.32 144.812V152H153.644V150.523H153.559C153.445 150.759 153.256 151.013 152.991 151.283C152.726 151.553 152.373 151.782 151.933 151.972C151.492 152.161 150.955 152.256 150.32 152.256ZM150.576 150.75C151.239 150.75 151.798 150.62 152.252 150.359C152.712 150.099 153.057 149.763 153.289 149.351C153.526 148.939 153.644 148.506 153.644 148.051V146.517C153.573 146.602 153.417 146.68 153.176 146.751C152.939 146.818 152.664 146.877 152.352 146.929C152.044 146.976 151.743 147.019 151.45 147.057C151.161 147.09 150.927 147.118 150.747 147.142C150.311 147.199 149.904 147.291 149.525 147.419C149.151 147.542 148.848 147.729 148.616 147.98C148.389 148.226 148.275 148.562 148.275 148.989C148.275 149.571 148.49 150.011 148.921 150.31C149.357 150.603 149.909 150.75 150.576 150.75ZM163.124 141.091V142.511H157.471V141.091H163.124ZM159.118 138.477H160.795V148.875C160.795 149.348 160.863 149.704 161.001 149.94C161.143 150.172 161.323 150.329 161.54 150.409C161.763 150.485 161.997 150.523 162.243 150.523C162.428 150.523 162.58 150.513 162.698 150.494C162.816 150.471 162.911 150.452 162.982 150.438L163.323 151.943C163.209 151.986 163.051 152.028 162.847 152.071C162.644 152.118 162.385 152.142 162.073 152.142C161.599 152.142 161.135 152.04 160.681 151.837C160.231 151.633 159.857 151.323 159.559 150.906C159.265 150.49 159.118 149.964 159.118 149.33V138.477ZM165.645 152V141.091H167.322V152H165.645ZM166.498 139.273C166.171 139.273 165.889 139.161 165.653 138.939C165.421 138.716 165.305 138.449 165.305 138.136C165.305 137.824 165.421 137.556 165.653 137.334C165.889 137.111 166.171 137 166.498 137C166.824 137 167.104 137.111 167.336 137.334C167.573 137.556 167.691 137.824 167.691 138.136C167.691 138.449 167.573 138.716 167.336 138.939C167.104 139.161 166.824 139.273 166.498 139.273ZM174.823 152.227C173.838 152.227 172.974 151.993 172.231 151.524C171.492 151.055 170.915 150.4 170.498 149.557C170.086 148.714 169.88 147.729 169.88 146.602C169.88 145.466 170.086 144.474 170.498 143.626C170.915 142.779 171.492 142.121 172.231 141.652C172.974 141.183 173.838 140.949 174.823 140.949C175.808 140.949 176.67 141.183 177.409 141.652C178.152 142.121 178.73 142.779 179.142 143.626C179.558 144.474 179.767 145.466 179.767 146.602C179.767 147.729 179.558 148.714 179.142 149.557C178.73 150.4 178.152 151.055 177.409 151.524C176.67 151.993 175.808 152.227 174.823 152.227ZM174.823 150.722C175.571 150.722 176.187 150.53 176.67 150.146C177.153 149.763 177.51 149.259 177.742 148.634C177.974 148.009 178.09 147.331 178.09 146.602C178.09 145.873 177.974 145.194 177.742 144.564C177.51 143.934 177.153 143.425 176.67 143.037C176.187 142.649 175.571 142.455 174.823 142.455C174.075 142.455 173.46 142.649 172.977 143.037C172.494 143.425 172.136 143.934 171.904 144.564C171.672 145.194 171.556 145.873 171.556 146.602C171.556 147.331 171.672 148.009 171.904 148.634C172.136 149.259 172.494 149.763 172.977 150.146C173.46 150.53 174.075 150.722 174.823 150.722ZM184.001 145.438V152H182.325V141.091H183.944V142.795H184.086C184.342 142.241 184.73 141.796 185.251 141.46C185.772 141.119 186.444 140.949 187.268 140.949C188.007 140.949 188.653 141.1 189.207 141.403C189.761 141.702 190.192 142.156 190.5 142.767C190.808 143.373 190.961 144.14 190.961 145.068V152H189.285V145.182C189.285 144.325 189.063 143.657 188.618 143.179C188.173 142.696 187.562 142.455 186.785 142.455C186.25 142.455 185.772 142.571 185.351 142.803C184.934 143.035 184.605 143.373 184.363 143.818C184.122 144.263 184.001 144.803 184.001 145.438Z" fill="#666666"/>
<path d="M16.6476 210H14.8862C14.782 209.493 14.5997 209.048 14.3393 208.665C14.0836 208.281 13.7711 207.959 13.4018 207.699C13.0372 207.434 12.6324 207.235 12.1873 207.102C11.7422 206.97 11.2782 206.903 10.7953 206.903C9.9146 206.903 9.11677 207.126 8.40181 207.571C7.69158 208.016 7.12577 208.672 6.70437 209.538C6.2877 210.405 6.07937 211.468 6.07937 212.727C6.07937 213.987 6.2877 215.05 6.70437 215.916C7.12577 216.783 7.69158 217.438 8.40181 217.884C9.11677 218.329 9.9146 218.551 10.7953 218.551C11.2782 218.551 11.7422 218.485 12.1873 218.352C12.6324 218.22 13.0372 218.023 13.4018 217.763C13.7711 217.498 14.0836 217.173 14.3393 216.79C14.5997 216.402 14.782 215.956 14.8862 215.455H16.6476C16.515 216.198 16.2735 216.863 15.9231 217.45C15.5727 218.037 15.1371 218.537 14.6163 218.949C14.0955 219.356 13.5107 219.666 12.862 219.879C12.2181 220.092 11.5292 220.199 10.7953 220.199C9.55475 220.199 8.45153 219.896 7.48562 219.29C6.51971 218.684 5.75977 217.822 5.20579 216.705C4.65181 215.587 4.37482 214.261 4.37482 212.727C4.37482 211.193 4.65181 209.867 5.20579 208.75C5.75977 207.633 6.51971 206.771 7.48562 206.165C8.45153 205.559 9.55475 205.256 10.7953 205.256C11.5292 205.256 12.2181 205.362 12.862 205.575C13.5107 205.788 14.0955 206.101 14.6163 206.513C15.1371 206.92 15.5727 207.417 15.9231 208.004C16.2735 208.587 16.515 209.252 16.6476 210ZM23.8404 220.227C22.7892 220.227 21.8825 219.995 21.1202 219.531C20.3626 219.062 19.7779 218.409 19.3659 217.571C18.9587 216.728 18.7551 215.748 18.7551 214.631C18.7551 213.513 18.9587 212.528 19.3659 211.676C19.7779 210.819 20.3508 210.152 21.0847 209.673C21.8233 209.19 22.6851 208.949 23.6699 208.949C24.2381 208.949 24.7992 209.044 25.3532 209.233C25.9071 209.422 26.4114 209.73 26.8659 210.156C27.3205 210.578 27.6827 211.136 27.9526 211.832C28.2225 212.528 28.3574 213.385 28.3574 214.403V215.114H19.9483V213.665H26.6529C26.6529 213.049 26.5298 212.5 26.2836 212.017C26.0421 211.534 25.6964 211.153 25.2466 210.874C24.8016 210.594 24.276 210.455 23.6699 210.455C23.0023 210.455 22.4247 210.62 21.937 210.952C21.454 211.278 21.0823 211.705 20.8219 212.23C20.5615 212.756 20.4313 213.319 20.4313 213.92V214.886C20.4313 215.71 20.5733 216.409 20.8574 216.982C21.1462 217.55 21.5463 217.983 22.0577 218.281C22.5691 218.575 23.1633 218.722 23.8404 218.722C24.2807 218.722 24.6784 218.66 25.0336 218.537C25.3934 218.409 25.7035 218.22 25.964 217.969C26.2244 217.713 26.4256 217.396 26.5676 217.017L28.187 217.472C28.0165 218.021 27.7301 218.504 27.3276 218.92C26.9251 219.332 26.428 219.654 25.8361 219.886C25.2443 220.114 24.579 220.227 23.8404 220.227ZM30.9071 220V209.091H32.5265V210.739H32.6401C32.839 210.199 33.1988 209.761 33.7196 209.425C34.2405 209.089 34.8276 208.92 35.481 208.92C35.6041 208.92 35.758 208.923 35.9426 208.928C36.1273 208.932 36.267 208.939 36.3617 208.949V210.653C36.3049 210.639 36.1747 210.618 35.9711 210.589C35.7722 210.556 35.5615 210.54 35.339 210.54C34.8087 210.54 34.3352 210.651 33.9185 210.874C33.5066 211.091 33.1799 211.394 32.9384 211.783C32.7016 212.166 32.5833 212.604 32.5833 213.097V220H30.9071ZM43.7765 209.091V210.511H38.123V209.091H43.7765ZM39.7708 206.477H41.4469V216.875C41.4469 217.348 41.5156 217.704 41.6529 217.94C41.7949 218.172 41.9748 218.329 42.1926 218.409C42.4152 218.485 42.6496 218.523 42.8958 218.523C43.0804 218.523 43.2319 218.513 43.3503 218.494C43.4687 218.471 43.5634 218.452 43.6344 218.438L43.9753 219.943C43.8617 219.986 43.7031 220.028 43.4995 220.071C43.2959 220.118 43.0378 220.142 42.7253 220.142C42.2518 220.142 41.7878 220.04 41.3333 219.837C40.8835 219.633 40.5094 219.323 40.2111 218.906C39.9176 218.49 39.7708 217.964 39.7708 217.33V206.477ZM46.2978 220V209.091H47.9739V220H46.2978ZM47.15 207.273C46.8233 207.273 46.5416 207.161 46.3049 206.939C46.0729 206.716 45.9569 206.449 45.9569 206.136C45.9569 205.824 46.0729 205.556 46.3049 205.334C46.5416 205.111 46.8233 205 47.15 205C47.4767 205 47.7561 205.111 47.9881 205.334C48.2248 205.556 48.3432 205.824 48.3432 206.136C48.3432 206.449 48.2248 206.716 47.9881 206.939C47.7561 207.161 47.4767 207.273 47.15 207.273ZM55.9018 209.091V210.511H50.0211V209.091H55.9018ZM51.7825 220V207.585C51.7825 206.96 51.9293 206.439 52.2228 206.023C52.5164 205.606 52.8975 205.294 53.3663 205.085C53.835 204.877 54.3298 204.773 54.8507 204.773C55.2626 204.773 55.5988 204.806 55.8592 204.872C56.1196 204.938 56.3137 205 56.4416 205.057L55.9586 206.506C55.8734 206.477 55.755 206.442 55.6035 206.399C55.4567 206.357 55.2626 206.335 55.0211 206.335C54.4672 206.335 54.0671 206.475 53.8208 206.754C53.5794 207.034 53.4586 207.443 53.4586 207.983V220H51.7825ZM58.2509 220V209.091H59.927V220H58.2509ZM59.1032 207.273C58.7765 207.273 58.4947 207.161 58.258 206.939C58.026 206.716 57.91 206.449 57.91 206.136C57.91 205.824 58.026 205.556 58.258 205.334C58.4947 205.111 58.7765 205 59.1032 205C59.4299 205 59.7092 205.111 59.9412 205.334C60.178 205.556 60.2963 205.824 60.2963 206.136C60.2963 206.449 60.178 206.716 59.9412 206.939C59.7092 207.161 59.4299 207.273 59.1032 207.273ZM67.5708 220.227C66.5197 220.227 65.613 219.995 64.8507 219.531C64.0931 219.062 63.5083 218.409 63.0964 217.571C62.6892 216.728 62.4856 215.748 62.4856 214.631C62.4856 213.513 62.6892 212.528 63.0964 211.676C63.5083 210.819 64.0813 210.152 64.8152 209.673C65.5538 209.19 66.4155 208.949 67.4004 208.949C67.9686 208.949 68.5297 209.044 69.0836 209.233C69.6376 209.422 70.1419 209.73 70.5964 210.156C71.051 210.578 71.4132 211.136 71.6831 211.832C71.9529 212.528 72.0879 213.385 72.0879 214.403V215.114H63.6788V213.665H70.3833C70.3833 213.049 70.2602 212.5 70.014 212.017C69.7725 211.534 69.4269 211.153 68.9771 210.874C68.532 210.594 68.0065 210.455 67.4004 210.455C66.7328 210.455 66.1551 210.62 65.6674 210.952C65.1845 211.278 64.8128 211.705 64.5524 212.23C64.292 212.756 64.1618 213.319 64.1618 213.92V214.886C64.1618 215.71 64.3038 216.409 64.5879 216.982C64.8767 217.55 65.2768 217.983 65.7882 218.281C66.2995 218.575 66.8938 218.722 67.5708 218.722C68.0112 218.722 68.4089 218.66 68.764 218.537C69.1239 218.409 69.434 218.22 69.6944 217.969C69.9548 217.713 70.1561 217.396 70.2981 217.017L71.9174 217.472C71.747 218.021 71.4605 218.504 71.0581 218.92C70.6556 219.332 70.1584 219.654 69.5666 219.886C68.9747 220.114 68.3095 220.227 67.5708 220.227ZM78.7569 220.227C77.8478 220.227 77.0453 219.998 76.3493 219.538C75.6532 219.074 75.1087 218.421 74.7157 217.578C74.3227 216.731 74.1262 215.729 74.1262 214.574C74.1262 213.428 74.3227 212.434 74.7157 211.591C75.1087 210.748 75.6556 210.097 76.3564 209.638C77.0571 209.179 77.8668 208.949 78.7853 208.949C79.4956 208.949 80.0566 209.067 80.4686 209.304C80.8852 209.536 81.2025 209.801 81.4203 210.099C81.6428 210.393 81.8156 210.634 81.9387 210.824H82.0808V205.455H83.7569V220H82.1376V218.324H81.9387C81.8156 218.523 81.6404 218.774 81.4132 219.077C81.1859 219.375 80.8616 219.643 80.4402 219.879C80.0188 220.111 79.4577 220.227 78.7569 220.227ZM78.9842 218.722C79.6565 218.722 80.2247 218.546 80.6887 218.196C81.1528 217.841 81.5055 217.351 81.747 216.726C81.9885 216.096 82.1092 215.369 82.1092 214.545C82.1092 213.731 81.9908 213.018 81.7541 212.408C81.5173 211.792 81.167 211.314 80.7029 210.973C80.2389 210.627 79.666 210.455 78.9842 210.455C78.274 210.455 77.6821 210.637 77.2086 211.001C76.7399 211.361 76.3871 211.851 76.1504 212.472C75.9184 213.087 75.8024 213.778 75.8024 214.545C75.8024 215.322 75.9208 216.027 76.1575 216.662C76.399 217.292 76.7541 217.794 77.2228 218.168C77.6963 218.537 78.2834 218.722 78.9842 218.722ZM92.1163 207.017V205.455H103.025V207.017H98.4515V220H96.6902V207.017H92.1163ZM104.384 220V209.091H106.003V210.739H106.117C106.316 210.199 106.675 209.761 107.196 209.425C107.717 209.089 108.304 208.92 108.958 208.92C109.081 208.92 109.235 208.923 109.419 208.928C109.604 208.932 109.744 208.939 109.838 208.949V210.653C109.781 210.639 109.651 210.618 109.448 210.589C109.249 210.556 109.038 210.54 108.816 210.54C108.285 210.54 107.812 210.651 107.395 210.874C106.983 211.091 106.656 211.394 106.415 211.783C106.178 212.166 106.06 212.604 106.06 213.097V220H104.384ZM115.035 220.256C114.344 220.256 113.717 220.125 113.153 219.865C112.59 219.6 112.142 219.219 111.811 218.722C111.479 218.22 111.314 217.614 111.314 216.903C111.314 216.278 111.437 215.772 111.683 215.384C111.929 214.991 112.258 214.683 112.67 214.46C113.082 214.238 113.537 214.072 114.034 213.963C114.536 213.849 115.04 213.759 115.547 213.693C116.21 213.608 116.747 213.544 117.159 213.501C117.576 213.454 117.879 213.376 118.068 213.267C118.262 213.158 118.359 212.969 118.359 212.699V212.642C118.359 211.941 118.167 211.397 117.784 211.009C117.405 210.62 116.83 210.426 116.058 210.426C115.258 210.426 114.631 210.601 114.176 210.952C113.721 211.302 113.402 211.676 113.217 212.074L111.626 211.506C111.91 210.843 112.289 210.327 112.763 209.957C113.241 209.583 113.762 209.323 114.325 209.176C114.893 209.025 115.452 208.949 116.001 208.949C116.352 208.949 116.754 208.991 117.209 209.077C117.668 209.157 118.111 209.325 118.537 209.581C118.968 209.837 119.325 210.223 119.609 210.739C119.893 211.255 120.035 211.946 120.035 212.812V220H118.359V218.523H118.274C118.16 218.759 117.971 219.013 117.706 219.283C117.441 219.553 117.088 219.782 116.648 219.972C116.207 220.161 115.67 220.256 115.035 220.256ZM115.291 218.75C115.954 218.75 116.513 218.62 116.967 218.359C117.426 218.099 117.772 217.763 118.004 217.351C118.241 216.939 118.359 216.506 118.359 216.051V214.517C118.288 214.602 118.132 214.68 117.89 214.751C117.654 214.818 117.379 214.877 117.067 214.929C116.759 214.976 116.458 215.019 116.165 215.057C115.876 215.09 115.641 215.118 115.461 215.142C115.026 215.199 114.619 215.291 114.24 215.419C113.866 215.542 113.563 215.729 113.331 215.98C113.104 216.226 112.99 216.562 112.99 216.989C112.99 217.571 113.205 218.011 113.636 218.31C114.072 218.603 114.623 218.75 115.291 218.75ZM124.771 213.438V220H123.095V209.091H124.714V210.795H124.856C125.112 210.241 125.5 209.796 126.021 209.46C126.542 209.119 127.214 208.949 128.038 208.949C128.776 208.949 129.423 209.1 129.977 209.403C130.531 209.702 130.962 210.156 131.269 210.767C131.577 211.373 131.731 212.14 131.731 213.068V220H130.055V213.182C130.055 212.325 129.832 211.657 129.387 211.179C128.942 210.696 128.331 210.455 127.555 210.455C127.02 210.455 126.542 210.571 126.12 210.803C125.704 211.035 125.374 211.373 125.133 211.818C124.892 212.263 124.771 212.803 124.771 213.438ZM142.521 211.534L141.015 211.96C140.921 211.709 140.781 211.465 140.596 211.229C140.416 210.987 140.17 210.788 139.858 210.632C139.545 210.476 139.145 210.398 138.657 210.398C137.99 210.398 137.434 210.552 136.988 210.859C136.548 211.162 136.328 211.548 136.328 212.017C136.328 212.434 136.479 212.763 136.782 213.004C137.086 213.246 137.559 213.447 138.203 213.608L139.822 214.006C140.798 214.242 141.524 214.605 142.003 215.092C142.481 215.575 142.72 216.198 142.72 216.96C142.72 217.585 142.54 218.144 142.18 218.636C141.825 219.129 141.328 219.517 140.689 219.801C140.05 220.085 139.306 220.227 138.459 220.227C137.346 220.227 136.425 219.986 135.696 219.503C134.967 219.02 134.505 218.314 134.311 217.386L135.902 216.989C136.053 217.576 136.34 218.016 136.761 218.31C137.187 218.603 137.744 218.75 138.43 218.75C139.211 218.75 139.832 218.584 140.291 218.253C140.755 217.917 140.987 217.514 140.987 217.045C140.987 216.667 140.854 216.349 140.589 216.094C140.324 215.833 139.917 215.639 139.368 215.511L137.55 215.085C136.55 214.848 135.817 214.482 135.348 213.984C134.884 213.482 134.652 212.855 134.652 212.102C134.652 211.487 134.825 210.942 135.17 210.469C135.521 209.995 135.997 209.624 136.598 209.354C137.204 209.084 137.89 208.949 138.657 208.949C139.737 208.949 140.585 209.186 141.2 209.659C141.82 210.133 142.261 210.758 142.521 211.534ZM146.919 205.455V220H145.243V205.455H146.919ZM153.199 220.256C152.508 220.256 151.881 220.125 151.317 219.865C150.754 219.6 150.306 219.219 149.975 218.722C149.644 218.22 149.478 217.614 149.478 216.903C149.478 216.278 149.601 215.772 149.847 215.384C150.093 214.991 150.422 214.683 150.834 214.46C151.246 214.238 151.701 214.072 152.198 213.963C152.7 213.849 153.204 213.759 153.711 213.693C154.374 213.608 154.911 213.544 155.323 213.501C155.74 213.454 156.043 213.376 156.232 213.267C156.426 213.158 156.523 212.969 156.523 212.699V212.642C156.523 211.941 156.331 211.397 155.948 211.009C155.569 210.62 154.994 210.426 154.222 210.426C153.422 210.426 152.795 210.601 152.34 210.952C151.885 211.302 151.566 211.676 151.381 212.074L149.79 211.506C150.074 210.843 150.453 210.327 150.927 209.957C151.405 209.583 151.926 209.323 152.489 209.176C153.057 209.025 153.616 208.949 154.165 208.949C154.516 208.949 154.918 208.991 155.373 209.077C155.832 209.157 156.275 209.325 156.701 209.581C157.132 209.837 157.489 210.223 157.773 210.739C158.057 211.255 158.199 211.946 158.199 212.812V220H156.523V218.523H156.438C156.324 218.759 156.135 219.013 155.87 219.283C155.605 219.553 155.252 219.782 154.812 219.972C154.371 220.161 153.834 220.256 153.199 220.256ZM153.455 218.75C154.118 218.75 154.677 218.62 155.131 218.359C155.59 218.099 155.936 217.763 156.168 217.351C156.405 216.939 156.523 216.506 156.523 216.051V214.517C156.452 214.602 156.296 214.68 156.055 214.751C155.818 214.818 155.543 214.877 155.231 214.929C154.923 214.976 154.622 215.019 154.329 215.057C154.04 215.09 153.805 215.118 153.626 215.142C153.19 215.199 152.783 215.291 152.404 215.419C152.03 215.542 151.727 215.729 151.495 215.98C151.268 216.226 151.154 216.562 151.154 216.989C151.154 217.571 151.369 218.011 151.8 218.31C152.236 218.603 152.787 218.75 153.455 218.75ZM166.003 209.091V210.511H160.35V209.091H166.003ZM161.997 206.477H163.673V216.875C163.673 217.348 163.742 217.704 163.879 217.94C164.021 218.172 164.201 218.329 164.419 218.409C164.642 218.485 164.876 218.523 165.122 218.523C165.307 218.523 165.459 218.513 165.577 218.494C165.695 218.471 165.79 218.452 165.861 218.438L166.202 219.943C166.088 219.986 165.93 220.028 165.726 220.071C165.522 220.118 165.264 220.142 164.952 220.142C164.478 220.142 164.014 220.04 163.56 219.837C163.11 219.633 162.736 219.323 162.438 218.906C162.144 218.49 161.997 217.964 161.997 217.33V206.477ZM168.524 220V209.091H170.2V220H168.524ZM169.377 207.273C169.05 207.273 168.768 207.161 168.531 206.939C168.299 206.716 168.183 206.449 168.183 206.136C168.183 205.824 168.299 205.556 168.531 205.334C168.768 205.111 169.05 205 169.377 205C169.703 205 169.983 205.111 170.215 205.334C170.451 205.556 170.57 205.824 170.57 206.136C170.57 206.449 170.451 206.716 170.215 206.939C169.983 207.161 169.703 207.273 169.377 207.273ZM177.702 220.227C176.717 220.227 175.853 219.993 175.11 219.524C174.371 219.055 173.794 218.4 173.377 217.557C172.965 216.714 172.759 215.729 172.759 214.602C172.759 213.466 172.965 212.474 173.377 211.626C173.794 210.779 174.371 210.121 175.11 209.652C175.853 209.183 176.717 208.949 177.702 208.949C178.687 208.949 179.549 209.183 180.287 209.652C181.031 210.121 181.608 210.779 182.02 211.626C182.437 212.474 182.645 213.466 182.645 214.602C182.645 215.729 182.437 216.714 182.02 217.557C181.608 218.4 181.031 219.055 180.287 219.524C179.549 219.993 178.687 220.227 177.702 220.227ZM177.702 218.722C178.45 218.722 179.066 218.53 179.549 218.146C180.032 217.763 180.389 217.259 180.621 216.634C180.853 216.009 180.969 215.331 180.969 214.602C180.969 213.873 180.853 213.194 180.621 212.564C180.389 211.934 180.032 211.425 179.549 211.037C179.066 210.649 178.45 210.455 177.702 210.455C176.954 210.455 176.339 210.649 175.856 211.037C175.373 211.425 175.015 211.934 174.783 212.564C174.551 213.194 174.435 213.873 174.435 214.602C174.435 215.331 174.551 216.009 174.783 216.634C175.015 217.259 175.373 217.763 175.856 218.146C176.339 218.53 176.954 218.722 177.702 218.722ZM186.88 213.438V220H185.204V209.091H186.823V210.795H186.965C187.221 210.241 187.609 209.796 188.13 209.46C188.651 209.119 189.323 208.949 190.147 208.949C190.886 208.949 191.532 209.1 192.086 209.403C192.64 209.702 193.071 210.156 193.379 210.767C193.686 211.373 193.84 212.14 193.84 213.068V220H192.164V213.182C192.164 212.325 191.942 211.657 191.497 211.179C191.052 210.696 190.441 210.455 189.664 210.455C189.129 210.455 188.651 210.571 188.23 210.803C187.813 211.035 187.484 211.373 187.242 211.818C187.001 212.263 186.88 212.803 186.88 213.438ZM204.631 211.534L203.125 211.96C203.03 211.709 202.89 211.465 202.706 211.229C202.526 210.987 202.28 210.788 201.967 210.632C201.655 210.476 201.255 210.398 200.767 210.398C200.099 210.398 199.543 210.552 199.098 210.859C198.657 211.162 198.437 211.548 198.437 212.017C198.437 212.434 198.589 212.763 198.892 213.004C199.195 213.246 199.668 213.447 200.312 213.608L201.932 214.006C202.907 214.242 203.634 214.605 204.112 215.092C204.59 215.575 204.829 216.198 204.829 216.96C204.829 217.585 204.649 218.144 204.29 218.636C203.934 219.129 203.437 219.517 202.798 219.801C202.159 220.085 201.416 220.227 200.568 220.227C199.455 220.227 198.534 219.986 197.805 219.503C197.076 219.02 196.614 218.314 196.42 217.386L198.011 216.989C198.163 217.576 198.449 218.016 198.871 218.31C199.297 218.603 199.853 218.75 200.54 218.75C201.321 218.75 201.941 218.584 202.4 218.253C202.864 217.917 203.096 217.514 203.096 217.045C203.096 216.667 202.964 216.349 202.699 216.094C202.434 215.833 202.026 215.639 201.477 215.511L199.659 215.085C198.66 214.848 197.926 214.482 197.457 213.984C196.993 213.482 196.761 212.855 196.761 212.102C196.761 211.487 196.934 210.942 197.28 210.469C197.63 209.995 198.106 209.624 198.707 209.354C199.313 209.084 200 208.949 200.767 208.949C201.846 208.949 202.694 209.186 203.309 209.659C203.93 210.133 204.37 210.758 204.631 211.534Z" fill="#666666"/>
<rect y="31" width="515" height="24" rx="12" fill="#D9D9D9"/>
<rect y="31" width="430" height="24" rx="12" fill="#EF33F3"/>
<rect y="97" width="515" height="24" rx="12" fill="#D9D9D9"/>
<rect y="97" width="460" height="24" rx="12" fill="#BA35BD"/>
<rect y="165" width="515" height="24" rx="12" fill="#D9D9D9"/>
<rect y="165" width="350" height="24" rx="12" fill="#2B27F6"/>
<rect y="234" width="515" height="24" rx="12" fill="#D9D9D9"/>
<rect y="234" width="435" height="24" rx="12" fill="#F6426D"/>
</svg>
